<?xml version="1.0" encoding="UTF-8"?>
<svg width="400" height="200" viewBox="0 0 400 200" xmlns="http://www.w3.org/2000/svg">
  <!-- 64px variant -->
  <g transform="translate(50, 50)">
    <text x="0" y="-10" font-family="Arial" font-size="12" fill="#2C2C2C">64px</text>
    <rect width="64" height="64" fill="#2E7D32" rx="8"/>
    <g transform="translate(32, 32)">
      <rect x="-1" y="-20" width="2" height="30" fill="#4E342E"/>
      <ellipse cx="-6" cy="-15" rx="4" ry="2" fill="#81C784" transform="rotate(-25)"/>
      <ellipse cx="6" cy="-10" rx="4" ry="2" fill="#81C784" transform="rotate(25)"/>
      <ellipse cx="-5" cy="-5" rx="4" ry="2" fill="#81C784" transform="rotate(-20)"/>
      <ellipse cx="5" cy="0" rx="4" ry="2" fill="#81C784" transform="rotate(20)"/>
      <ellipse cx="-4" cy="5" rx="4" ry="2" fill="#81C784" transform="rotate(-15)"/>
      <circle cx="10" cy="-18" r="3" fill="#A5D6A7"/>
    </g>
  </g>
  
  <!-- 32px variant -->
  <g transform="translate(150, 50)">
    <text x="0" y="-10" font-family="Arial" font-size="12" fill="#2C2C2C">32px</text>
    <rect width="32" height="32" fill="#2E7D32" rx="4"/>
    <g transform="translate(16, 16)">
      <rect x="-0.5" y="-10" width="1" height="15" fill="#4E342E"/>
      <ellipse cx="-3" cy="-7" rx="2" ry="1" fill="#81C784" transform="rotate(-30)"/>
      <ellipse cx="3" cy="-5" rx="2" ry="1" fill="#81C784" transform="rotate(30)"/>
      <ellipse cx="-2" cy="-2" rx="2" ry="1" fill="#81C784" transform="rotate(-20)"/>
      <ellipse cx="2" cy="1" rx="2" ry="1" fill="#81C784" transform="rotate(20)"/>
      <circle cx="5" cy="-8" r="1.5" fill="#A5D6A7"/>
    </g>
  </g>
  
  <!-- 16px variant -->
  <g transform="translate(220, 50)">
    <text x="0" y="-10" font-family="Arial" font-size="12" fill="#2C2C2C">16px</text>
    <rect width="16" height="16" fill="#2E7D32" rx="2"/>
    <g transform="translate(8, 8)">
      <rect x="-0.25" y="-5" width="0.5" height="8" fill="#4E342E"/>
      <ellipse cx="-1.5" cy="-3" rx="1" ry="0.5" fill="#81C784"/>
      <ellipse cx="1.5" cy="-2" rx="1" ry="0.5" fill="#81C784"/>
      <ellipse cx="-1" cy="0" rx="1" ry="0.5" fill="#81C784"/>
      <ellipse cx="1" cy="1" rx="1" ry="0.5" fill="#81C784"/>
      <circle cx="2.5" cy="-4" r="0.75" fill="#A5D6A7"/>
    </g>
  </g>
  
  <!-- Monochrome variants -->
  <g transform="translate(280, 50)">
    <text x="0" y="-10" font-family="Arial" font-size="12" fill="#2C2C2C">Mono Light</text>
    <rect width="32" height="32" fill="#F5F5F5" stroke="#E0E0E0" rx="4"/>
    <g transform="translate(16, 16)">
      <rect x="-0.5" y="-10" width="1" height="15" fill="#616161"/>
      <ellipse cx="-3" cy="-7" rx="2" ry="1" fill="#9E9E9E" transform="rotate(-30)"/>
      <ellipse cx="3" cy="-5" rx="2" ry="1" fill="#9E9E9E" transform="rotate(30)"/>
      <ellipse cx="-2" cy="-2" rx="2" ry="1" fill="#9E9E9E" transform="rotate(-20)"/>
      <ellipse cx="2" cy="1" rx="2" ry="1" fill="#9E9E9E" transform="rotate(20)"/>
      <circle cx="5" cy="-8" r="1.5" fill="#757575"/>
    </g>
  </g>
  
  <g transform="translate(330, 50)">
    <text x="0" y="-10" font-family="Arial" font-size="12" fill="#2C2C2C">Mono Dark</text>
    <rect width="32" height="32" fill="#424242" rx="4"/>
    <g transform="translate(16, 16)">
      <rect x="-0.5" y="-10" width="1" height="15" fill="#BDBDBD"/>
      <ellipse cx="-3" cy="-7" rx="2" ry="1" fill="#E0E0E0" transform="rotate(-30)"/>
      <ellipse cx="3" cy="-5" rx="2" ry="1" fill="#E0E0E0" transform="rotate(30)"/>
      <ellipse cx="-2" cy="-2" rx="2" ry="1" fill="#E0E0E0" transform="rotate(-20)"/>
      <ellipse cx="2" cy="1" rx="2" ry="1" fill="#E0E0E0" transform="rotate(20)"/>
      <circle cx="5" cy="-8" r="1.5" fill="#F5F5F5"/>
    </g>
  </g>
  
  <!-- Usage examples -->
  <text x="50" y="140" font-family="Arial" font-size="14" font-weight="bold" fill="#2C2C2C">Usage Examples:</text>
  <text x="50" y="160" font-family="Arial" font-size="12" fill="#666">64px: App icons, large headers</text>
  <text x="50" y="175" font-family="Arial" font-size="12" fill="#666">32px: Standard web icons</text>
  <text x="50" y="190" font-family="Arial" font-size="12" fill="#666">16px: Menu items, small UI elements</text>
  <text x="250" y="160" font-family="Arial" font-size="12" fill="#666">Mono: Documentation, print</text>
</svg>